# xmcd
#
# Track frame offsets:
#	150
#	10512
#	26553
#	42415
#	58412
#	71760
#	88499
#	101701
#	113399
#	125644
#	140207
#	153963
#	166832
#	181170
#	195141
#	208311
#	221909
#	236472
#	248489
#	265896
#	279360
#	294524
#	307671
#	323375
#	335019
#
# Disc length: 4654 seconds
#
# Revision: 0
# Processed by: cddbd v1.5.2PL0 Copyright (c) Steve Scherf et al.
# Submitted via: dBpowerAMP V4.0
#
DISCID=67122c19
DTITLE=Duelo - Existos and Nuevo
DYEAR=1900
DGENRE=
TTITLE0=Intro
TTITLE1=Un idiota como yo
TTITLE2=Por que no te marchas
TTITLE3=Escrito en una esquina
TTITLE4=Te compro
TTITLE5=Espacios
TTITLE6=¿Por Que?
TTITLE7=Ya me voy
TTITLE8=Con el mundo encima
TTITLE9=En la inmencidad
TTITLE10=Amiga Soledad
TTITLE11=Que ya te vas
TTITLE12=Bienvenido al amor
TTITLE13=Si quieres volar
TTITLE14=Nada cambiara
TTITLE15=Es por ella
TTITLE16=Que hubiera sido
TTITLE17=Insomnio
TTITLE18=Ya no quiero extrañarte
TTITLE19=Dejame volar
TTITLE20=No es justo
TTITLE21=Miradas
TTITLE22=Un minuto mas
TTITLE23=Le dije al corazon
TTITLE24=El dia
EXTD=Felix
EXTT0=
EXTT1=
EXTT2=
EXTT3=
EXTT4=
EXTT5=
EXTT6=
EXTT7=
EXTT8=
EXTT9=
EXTT10=
EXTT11=
EXTT12=
EXTT13=
EXTT14=
EXTT15=
EXTT16=
EXTT17=
EXTT18=
EXTT19=
EXTT20=
EXTT21=
EXTT22=
EXTT23=
EXTT24=
PLAYORDER=
